name C:\Users\u0101727\Documents\MyRepositories\upper-imu-dc\Results\main_tracking\Case_10\FLX01_angularVelocities_bodyFrame.mot
datacolumns 4
datarows 70
range 3.51000000 4.20000000
endheader 
time	radius_imu_x	radius_imu_y	radius_imu_z	
          3.51000000	          0.01626416	          0.27432571	          0.10256858	
          3.52000000	          0.02952530	          0.20968656	          0.10012879	
          3.53000000	          0.04183900	          0.14387719	          0.09635045	
          3.54000000	          0.05295468	          0.07996951	          0.09154140	
          3.55000000	          0.06268854	          0.02132779	          0.08607920	
          3.56000000	          0.07096098	         -0.02953266	          0.08036448	
          3.57000000	          0.07781725	         -0.07185134	          0.07475395	
          3.58000000	          0.08339354	         -0.10671497	          0.06948878	
          3.59000000	          0.08784964	         -0.13643406	          0.06464869	
          3.60000000	          0.09132216	         -0.16369398	          0.06015885	
          3.61000000	          0.09392025	         -0.19079199	          0.05584866	
          3.62000000	          0.09572696	         -0.21885755	          0.05152713	
          3.63000000	          0.09676435	         -0.24699824	          0.04703621	
          3.64000000	          0.09694136	         -0.27176561	          0.04227330	
          3.65000000	          0.09604042	         -0.28742044	          0.03720157	
          3.66000000	          0.09376508	         -0.28701266	          0.03186399	
          3.67000000	          0.08983598	         -0.26394861	          0.02640704	
          3.68000000	          0.08412542	         -0.21380811	          0.02111613	
          3.69000000	          0.07682728	         -0.13631988	          0.01646101	
          3.70000000	          0.06862116	         -0.03708661	          0.01313177	
          3.71000000	          0.06071451	          0.07216752	          0.01202229	
          3.72000000	          0.05463671	          0.17591944	          0.01410677	
          3.73000000	          0.05183708	          0.25912661	          0.02023286	
          3.74000000	          0.05329037	          0.31151065	          0.03092762	
          3.75000000	          0.05924137	          0.33016876	          0.04627025	
          3.76000000	          0.06914751	          0.31992464	          0.06586841	
          3.77000000	          0.08182186	          0.29163008	          0.08895076	
          3.78000000	          0.09571453	          0.25906628	          0.11453817	
          3.79000000	          0.10925648	          0.23529951	          0.14164407	
          3.80000000	          0.12118703	          0.22937769	          0.16945375	
          3.81000000	          0.13078942	          0.24421836	          0.19744299	
          3.82000000	          0.13797758	          0.27625009	          0.22541545	
          3.83000000	          0.14321660	          0.31681183	          0.25345949	
          3.84000000	          0.14730920	          0.35475019	          0.28184500	
          3.85000000	          0.15112122	          0.37936954	          0.31089456	
          3.86000000	          0.15532991	          0.38294433	          0.34086676	
          3.87000000	          0.16026166	          0.36223476	          0.37187998	
          3.88000000	          0.16584881	          0.31878081	          0.40388622	
          3.89000000	          0.17169669	          0.25811414	          0.43668827	
          3.90000000	          0.17722729	          0.18827052	          0.46998745	
          3.91000000	          0.18185254	          0.11803826	          0.50344707	
          3.92000000	          0.18512590	          0.05529319	          0.53675508	
          3.93000000	          0.18683273	          0.00565736	          0.56967206	
          3.94000000	          0.18701024	         -0.02836134	          0.60206213	
          3.95000000	          0.18591631	         -0.04761903	          0.63391403	
          3.96000000	          0.18397469	         -0.05587836	          0.66535621	
          3.97000000	          0.18171626	         -0.05869963	          0.69666098	
          3.98000000	          0.17972849	         -0.06198105	          0.72823022	
          3.99000000	          0.17861872	         -0.07059292	          0.76056167	
          4.00000000	          0.17898814	         -0.08747323	          0.79419903	
          4.01000000	          0.18140365	         -0.11332823	          0.82966798	
          4.02000000	          0.18635623	         -0.14685252	          0.86739958	
          4.03000000	          0.19420541	         -0.18524539	          0.90764913	
          4.04000000	          0.20512690	         -0.22480862	          0.95042726	
          4.05000000	          0.21908766	         -0.26156670	          0.99546022	
          4.06000000	          0.23586257	         -0.29201116	          1.04218617	
          4.07000000	          0.25508805	         -0.31403658	          1.08978527	
          4.08000000	          0.27634186	         -0.32791838	          1.13723984	
          4.09000000	          0.29923921	         -0.33697875	          1.18341958	
          4.10000000	          0.32353301	         -0.34758842	          1.22718327	
          4.11000000	          0.34919910	         -0.36838207	          1.26748315	
          4.12000000	          0.37648025	         -0.40885056	          1.30345215	
          4.13000000	          0.40585919	         -0.47758201	          1.33444948	
          4.14000000	          0.43793797	         -0.58036119	          1.36004769	
          4.15000000	          0.47322992	         -0.71831150	          1.37996708	
          4.16000000	          0.51190763	         -0.88636175	          1.39398627	
          4.17000000	          0.55357502	         -1.07243667	          1.40186560	
          4.18000000	          0.59713336	         -1.25777894	          1.40331653	
          4.19000000	          0.64079373	         -1.41864100	          1.39803740	
          4.20000000	          0.68225291	         -1.52926809	          1.38581244	
